<svg id="Calque_1" data-name="Calque 1" xmlns="http://www.w3.org/2000/svg" viewBox="0 0 30 30"><defs><style>.cls-1{fill:#fff;}.cls-2{fill:#748a9b;}</style></defs><title>PP</title><path class="cls-1" d="M15,27.78A12.78,12.78,0,1,1,27.78,15,12.79,12.79,0,0,1,15,27.78Z"/><path class="cls-2" d="M15,3.44A11.56,11.56,0,1,1,3.44,15,11.57,11.57,0,0,1,15,3.44M15,1A14,14,0,1,0,29,15,14,14,0,0,0,15,1h0Z"/><path class="cls-2" d="M17.13,11.63a8.87,8.87,0,0,0-4.54,1.21,3.8,3.8,0,0,1-1.68.59c-1.39,0-3-1.58-3.06-1.59a0.59,0.59,0,0,0-.86.82,3.64,3.64,0,0,1,0,4.79,0.6,0.6,0,0,0,.85.83,6.16,6.16,0,0,1,3-1.45,3.74,3.74,0,0,1,1.57.66A9.12,9.12,0,0,0,17.19,19c3.59,0,6.22-2.63,6.22-3.74S20.76,11.63,17.13,11.63ZM8.94,14.08a4.33,4.33,0,0,0,2,.55,4.72,4.72,0,0,0,2.23-.73,7.75,7.75,0,0,1,4-1.08,6.24,6.24,0,0,1,5.09,2.42,6,6,0,0,1-5,2.56,8,8,0,0,1-4.27-1.33,4.48,4.48,0,0,0-2.16-.81,4.29,4.29,0,0,0-1.83.49A4.5,4.5,0,0,0,8.94,14.08Z"/><circle class="cls-2" cx="19.91" cy="14.8" r="0.6"/></svg>