<svg id="Calque_1" data-name="Calque 1" xmlns="http://www.w3.org/2000/svg" viewBox="0 0 30 30"><defs><style>.cls-1{fill:#fff;}.cls-2{fill:#97bf29;}.cls-3,.cls-4{fill:#00a8bd;}.cls-3{stroke:#00a8bd;stroke-miterlimit:10;stroke-width:0.49px;}</style></defs><title>PP</title><path class="cls-1" d="M15,27.78A12.78,12.78,0,1,1,27.78,15,12.79,12.79,0,0,1,15,27.78Z"/><path class="cls-2" d="M15,3.44A11.56,11.56,0,1,1,3.44,15,11.57,11.57,0,0,1,15,3.44M15,1A14,14,0,1,0,29,15,14,14,0,0,0,15,1h0Z"/><g id="_Groupe_" data-name="&lt;Groupe&gt;"><path id="_Tracé_transparent_" data-name="&lt;Tracé transparent&gt;" class="cls-3" d="M17.19,18.74a8.9,8.9,0,0,1-4.74-1.45,3.85,3.85,0,0,0-1.69-.69,6.29,6.29,0,0,0-3.12,1.5,0.35,0.35,0,0,1-.5-0.49,3.92,3.92,0,0,0,0-5.11A0.35,0.35,0,0,1,7.67,12s1.72,1.66,3.23,1.66a4,4,0,0,0,1.8-.62,8.67,8.67,0,0,1,4.43-1.19c3.6,0,6,2.53,6,3.37S20.76,18.74,17.19,18.74Zm-6.42-2.85a4.32,4.32,0,0,1,2,.78A8.19,8.19,0,0,0,17.19,18c3.25,0,5.23-2.35,5.28-2.8s-2.08-2.66-5.35-2.66A8,8,0,0,0,13,13.68a4.53,4.53,0,0,1-2.12.7,4.69,4.69,0,0,1-2.37-.81,4.36,4.36,0,0,1,0,3.07A4.8,4.8,0,0,1,10.77,15.89Z"/></g><g id="_Groupe_2" data-name="&lt;Groupe&gt;"><path id="_Tracé_transparent_2" data-name="&lt;Tracé transparent&gt;" class="cls-4" d="M19.91,15.4a0.6,0.6,0,1,1,.6-0.6A0.6,0.6,0,0,1,19.91,15.4Z"/></g></svg>