<svg id="Calque_1" data-name="Calque 1" xmlns="http://www.w3.org/2000/svg" viewBox="0 0 30 30"><defs><style>.cls-1{fill:#fff;}.cls-2{fill:#004081;}.cls-3{fill:none;stroke:#00a8c0;stroke-linecap:round;stroke-linejoin:round;stroke-width:1.14px;}</style></defs><title>PP</title><path class="cls-1" d="M15,27.78A12.78,12.78,0,1,1,27.78,15,12.79,12.79,0,0,1,15,27.78Z"/><path class="cls-2" d="M15,3.44A11.56,11.56,0,1,1,3.44,15,11.57,11.57,0,0,1,15,3.44M15,1A14,14,0,1,0,29,15,14,14,0,0,0,15,1h0Z"/><path class="cls-3" d="M10,18.67a2.65,2.65,0,0,1,1.93-1.13c1.62,0,1.62,1.65,3.24,1.65s1.62-1.65,3.24-1.65a2.54,2.54,0,0,1,1.88,1.08M6.95,15.5a2.22,2.22,0,0,0,1.71.92c1.62,0,1.62-1.65,3.24-1.65s1.62,1.65,3.24,1.65,1.62-1.65,3.24-1.65,1.62,1.65,3.24,1.65a2.09,2.09,0,0,0,1.62-.82M5.42,12C7,12,7,13.63,8.66,13.63S10.28,12,11.89,12s1.62,1.65,3.24,1.65S16.75,12,18.37,12s1.62,1.65,3.24,1.65S23.23,12,24.85,12"/></svg>